#!OML:ASF E:\motion texture\Top Level 1\Subject 1\Session 1\male.ASF
:FULLY-SPECIFIED
:DEGREES
544
root -17.0288 17.9531 3.13441 462.211 -81.8055 -455.675
lowerback 1.14769 1.88023 7.43996
upperback -0.556938 2.50931 5.43592
thorax -1.13984 1.1383 1.39901
lowerneck -16.6593 -0.990621 -2.2512
upperneck 13.3915 -1.52479 4.12244
head 6.87585 -0.486914 1.54146
rclavicle -7.7526e-015 1.74931e-014
rhumerus 14.0295 33.7986 -81.9209
rradius 82.6506
rwrist 30.1198
rhand -39.1949 -34.707
rfingers 7.12502
rthumb -12.1916 -424.332
lclavicle -7.7526e-015 1.74931e-014
lhumerus 3.54535 -21.4097 100.471
lradius 75.9584
lwrist 23.8273
lhand -11.7385 42.3403
lfingers 7.12502
lthumb 14.309 71.8272
rfemur -8.78613 -1.41947 31.4252
rtibia 20.0256
rfoot -12.5188 -17.6459
rtoes 10.4157
lfemur -32.7154 0.926219 -6.23596
ltibia 35.875
lfoot -7.72935 8.2946
ltoes -17.3174
545
root -17.162 17.9368 3.12354 463.1 -81.7458 -456.49
lowerback 1.16842 1.96495 7.4547
upperback -0.53645 2.62528 5.3628
thorax -1.12279 1.19771 1.31297
lowerneck -16.6398 -1.01741 -2.27596
upperneck 13.2866 -1.57542 4.25905
head 6.84185 -0.501348 1.58396
rclavicle -4.57205e-015 -2.38542e-015
rhumerus 14.9756 34.1344 -81.4721
rradius 82.732
rwrist 30.6262
rhand -39.5182 -34.9948
rfingers 7.12502
rthumb -12.5033 -424.601
lclavicle -4.57205e-015 -2.38542e-015
lhumerus 4.04523 -21.2518 100.397
lradius 76.2411
lwrist 24.5027
lhand -11.8369 42.9355
lfingers 7.12502
lthumb 14.2141 72.4291
rfemur -8.45069 -1.32252 31.5347
rtibia 20.1789
rfoot -12.911 -17.8057
rtoes 9.85031
lfemur -32.9589 0.914669 -6.06915
ltibia 34.3502
lfoot -7.80813 8.38332
ltoes -17.3159
546
root -17.2958 17.9189 3.11317 463.988 -81.6822 -457.303
lowerback 1.19474 2.05007 7.46992
upperback -0.513271 2.74227 5.28669
thorax -1.10555 1.25772 1.22349
lowerneck -16.6241 -1.04434 -2.30112
upperneck 13.1832 -1.62633 4.39779
head 6.80915 -0.515824 1.62718
rclavicle -1.15295e-014 3.81667e-014
rhumerus 15.884 34.4729 -81.0274
rradius 82.8062
rwrist 31.1384
rhand -39.8362 -35.2969
rfingers 7.12502
rthumb -12.8099 -424.884
lclavicle -1.15295e-014 3.81667e-014
lhumerus 4.50619 -21.0832 100.337
lradius 76.5195
lwrist 25.2048
lhand -11.9506 43.5309
lfingers 7.12502
lthumb 14.1046 73.0322
rfemur -8.12823 -1.22954 31.6432
rtibia 20.3604
rfoot -13.3084 -17.9623
rtoes 9.26487
lfemur -33.1882 0.887583 -5.89308
ltibia 32.8598
lfoot -7.86548 8.46382
ltoes -17.3334
547
root -17.4303 17.8995 3.10337 464.891 -81.6141 -458.131
lowerback 1.22625 2.13698 7.4855
upperback -0.48634 2.86198 5.20794
thorax -1.0867 1.31922 1.13098
lowerneck -16.6102 -1.07207 -2.32757
upperneck 13.0789 -1.67815 4.53886
head 6.77666 -0.530716 1.67123
rclavicle 1.72943e-014 2.54444e-014
rhumerus 16.7507 34.8145 -80.5866
rradius 82.8771
rwrist 31.6491
rhand -40.1494 -35.6151
rfingers 7.12502
rthumb -13.1118 -425.183
lclavicle 1.72943e-014 2.54444e-014
lhumerus 4.92568 -20.9107 100.289
lradius 76.7948
lwrist 25.9357
lhand -12.0761 44.131
lfingers 7.12502
lthumb 13.9837 73.6407
rfemur -7.8166 -1.13905 31.7497
rtibia 20.5699
rfoot -13.7094 -18.1149
rtoes 8.66056
lfemur -33.4019 0.846056 -5.70758
ltibia 31.4127
lfoot -7.89938 8.53658
ltoes -17.3732
548
root -17.5655 17.8787 3.09422 465.801 -81.5419 -458.964
lowerback 1.26151 2.2249 7.50246
upperback -0.455128 2.98318 5.12605
thorax -1.06483 1.38164 1.03446
lowerneck -16.6008 -1.1004 -2.3556
upperneck 12.9756 -1.73076 4.68326
head 6.74544 -0.545841 1.71653
rclavicle -1.99779e-014 5.64548e-014
rhumerus 17.5717 35.1621 -80.1516
rradius 82.9451
rwrist 32.157
rhand -40.4587 -35.9335
rfingers 7.12502
rthumb -13.4099 -425.482
lclavicle -1.99779e-014 5.64548e-014
lhumerus 5.29971 -20.7358 100.254
lradius 77.0699
lwrist 26.6936
lhand -12.2142 44.7305
lfingers 7.12502
lthumb 13.8506 74.2493
rfemur -7.51847 -1.05254 31.8536
rtibia 20.8103
rfoot -14.114 -18.2617
rtoes 8.03157
lfemur -33.6049 0.791147 -5.51429
ltibia 30.0195
lfoot -7.89408 8.59593
ltoes -17.4191
